<svg width="114" height="44" viewBox="0 0 114 44" fill="none" xmlns="http://www.w3.org/2000/svg">
<path d="M110.001 19.1003C110.001 19.1003 102.792 30.1342 90.7554 32.2053C78.5214 34.3105 61.457 27.4765 62.8345 15.1056C63.5755 8.45083 67.1262 3.97382 73.8034 4.00582C80.4583 4.0377 84.7476 8.56476 86.0687 15.1056C88.8972 29.1093 70.9997 39.8788 56.7517 39.9052C42.475 39.9317 24.1607 29.1291 27.0358 15.1056C28.3805 8.54666 32.5269 3.81064 39.2014 4.00582C45.7438 4.19713 50.2721 8.6522 51.4666 15.1056C54.0151 28.8739 37.0504 41.2085 23.1468 39.9052C14.0686 39.0542 7.92869 34.757 4.00098 26.5054" stroke="#A0C9CB" stroke-width="8" stroke-linecap="round"/>
</svg>
