<svg xmlns="http://www.w3.org/2000/svg" xmlns:xlink="http://www.w3.org/1999/xlink" width="500" zoomAndPan="magnify" viewBox="0 0 375 374.999991" height="500" preserveAspectRatio="xMidYMid meet" version="1.0"><defs><g/><clipPath id="973afeb7ec"><path d="M 0.972656 84 L 28 84 L 28 110.539062 L 0.972656 110.539062 Z M 0.972656 84 " clip-rule="nonzero"/></clipPath><clipPath id="6b71c9cb86"><path d="M 216 84 L 244.121094 84 L 244.121094 110.539062 L 216 110.539062 Z M 216 84 " clip-rule="nonzero"/></clipPath><clipPath id="69e024eb97"><path d="M 0.972656 0.0546875 L 28 0.0546875 L 28 27 L 0.972656 27 Z M 0.972656 0.0546875 " clip-rule="nonzero"/></clipPath><clipPath id="0da1639edf"><path d="M 216 0.0546875 L 244.121094 0.0546875 L 244.121094 27 L 216 27 Z M 216 0.0546875 " clip-rule="nonzero"/></clipPath><clipPath id="035982d6fa"><rect x="0" width="237" y="0" height="39"/></clipPath><clipPath id="d2df9de4a5"><rect x="0" width="245" y="0" height="112"/></clipPath></defs><rect x="-37.5" width="450" fill="#ffffff" y="-37.499999" height="449.999989" fill-opacity="1"/><rect x="-37.5" width="450" fill="#ffffff" y="-37.499999" height="449.999989" fill-opacity="1"/><g transform="matrix(1, 0, 0, 1, 65, 132)"><g clip-path="url(#d2df9de4a5)"><g clip-path="url(#973afeb7ec)"><path fill="#e2a165" d="M 27.992188 109.261719 L 3.210938 109.261719 L 3.210938 84.621094 L 0.972656 84.621094 L 0.972656 110.941406 L 27.992188 110.941406 L 27.992188 109.261719 " fill-opacity="1" fill-rule="nonzero"/></g><g clip-path="url(#6b71c9cb86)"><path fill="#e2a165" d="M 241.777344 84.621094 L 241.777344 109.261719 L 216.996094 109.261719 L 216.996094 110.941406 L 244.015625 110.941406 L 244.015625 84.621094 L 241.777344 84.621094 " fill-opacity="1" fill-rule="nonzero"/></g><g clip-path="url(#69e024eb97)"><path fill="#e2a165" d="M 27.992188 0.0585938 L 0.972656 0.0585938 L 0.972656 26.378906 L 3.210938 26.378906 L 3.210938 1.738281 L 27.992188 1.738281 L 27.992188 0.0585938 " fill-opacity="1" fill-rule="nonzero"/></g><g clip-path="url(#0da1639edf)"><path fill="#e2a165" d="M 216.996094 0.0585938 L 216.996094 1.738281 L 241.777344 1.738281 L 241.777344 26.378906 L 244.015625 26.378906 L 244.015625 0.0585938 L 216.996094 0.0585938 " fill-opacity="1" fill-rule="nonzero"/></g><g transform="matrix(1, 0, 0, 1, 5, 36)"><g clip-path="url(#035982d6fa)"><g fill="#000001" fill-opacity="1"><g transform="translate(0.929113, 13.652076)"><g><path d="M 13.765625 0 L 1.234375 0 C 1.378906 -3.84375 1.378906 -7.679688 1.234375 -11.515625 C 1.835938 -11.421875 2.4375 -11.367188 3.03125 -11.359375 C 3.632812 -11.359375 4.195312 -11.410156 4.71875 -11.515625 C 4.6875 -11.160156 4.65625 -10.6875 4.625 -10.09375 C 4.601562 -9.507812 4.582031 -8.859375 4.5625 -8.140625 C 4.550781 -7.429688 4.546875 -6.703125 4.546875 -5.953125 C 4.546875 -5.210938 4.550781 -4.5 4.5625 -3.8125 C 4.570312 -3.132812 4.585938 -2.539062 4.609375 -2.03125 C 5.003906 -2.03125 5.515625 -2.039062 6.140625 -2.0625 C 6.765625 -2.09375 7.441406 -2.128906 8.171875 -2.171875 C 8.898438 -2.210938 9.625 -2.257812 10.34375 -2.3125 C 11.0625 -2.375 11.722656 -2.441406 12.328125 -2.515625 C 12.929688 -2.585938 13.410156 -2.671875 13.765625 -2.765625 C 13.722656 -2.203125 13.703125 -1.710938 13.703125 -1.296875 C 13.703125 -0.890625 13.722656 -0.457031 13.765625 0 Z M 13.765625 0 "/></g></g></g><g fill="#000001" fill-opacity="1"><g transform="translate(17.384888, 13.652076)"><g><path d="M 15.34375 0 L 11.53125 0 C 11.425781 -0.320312 11.304688 -0.671875 11.171875 -1.046875 C 11.035156 -1.429688 10.894531 -1.828125 10.75 -2.234375 C 10.132812 -2.253906 9.46875 -2.265625 8.75 -2.265625 C 8.03125 -2.265625 7.304688 -2.265625 6.578125 -2.265625 C 5.859375 -2.265625 5.1875 -2.253906 4.5625 -2.234375 L 3.71875 0 L 0.078125 0 C 0.984375 -1.925781 1.851562 -3.847656 2.6875 -5.765625 C 3.53125 -7.679688 4.328125 -9.597656 5.078125 -11.515625 C 5.410156 -11.472656 5.804688 -11.4375 6.265625 -11.40625 C 6.722656 -11.375 7.203125 -11.351562 7.703125 -11.34375 C 8.203125 -11.34375 8.679688 -11.351562 9.140625 -11.375 C 9.597656 -11.40625 9.988281 -11.453125 10.3125 -11.515625 C 11.0625 -9.597656 11.859375 -7.679688 12.703125 -5.765625 C 13.554688 -3.847656 14.4375 -1.925781 15.34375 0 Z M 5.28125 -4.09375 C 6.007812 -4.070312 6.800781 -4.0625 7.65625 -4.0625 C 8.519531 -4.0625 9.316406 -4.070312 10.046875 -4.09375 C 9.734375 -4.914062 9.421875 -5.707031 9.109375 -6.46875 C 8.796875 -7.226562 8.507812 -7.898438 8.25 -8.484375 C 7.988281 -9.078125 7.785156 -9.507812 7.640625 -9.78125 C 7.492188 -9.507812 7.296875 -9.082031 7.046875 -8.5 C 6.796875 -7.914062 6.519531 -7.238281 6.21875 -6.46875 C 5.914062 -5.707031 5.601562 -4.914062 5.28125 -4.09375 Z M 5.28125 -4.09375 "/></g></g></g><g fill="#000001" fill-opacity="1"><g transform="translate(34.808631, 13.652076)"><g/></g></g><g fill="#000001" fill-opacity="1"><g transform="translate(41.41575, 13.652076)"><g><path d="M 8.625 0.28125 C 6.925781 0.28125 5.476562 0.03125 4.28125 -0.46875 C 3.082031 -0.96875 2.171875 -1.675781 1.546875 -2.59375 C 0.921875 -3.507812 0.609375 -4.585938 0.609375 -5.828125 C 0.609375 -7.140625 0.945312 -8.242188 1.625 -9.140625 C 2.3125 -10.035156 3.28125 -10.707031 4.53125 -11.15625 C 5.78125 -11.613281 7.25 -11.84375 8.9375 -11.84375 C 9.84375 -11.84375 10.816406 -11.753906 11.859375 -11.578125 C 12.910156 -11.410156 14.054688 -11.070312 15.296875 -10.5625 C 15.222656 -10.03125 15.1875 -9.546875 15.1875 -9.109375 C 15.1875 -8.671875 15.222656 -8.179688 15.296875 -7.640625 C 14.460938 -8.171875 13.671875 -8.578125 12.921875 -8.859375 C 12.171875 -9.148438 11.472656 -9.347656 10.828125 -9.453125 C 10.191406 -9.566406 9.617188 -9.625 9.109375 -9.625 C 8.046875 -9.632812 7.113281 -9.492188 6.3125 -9.203125 C 5.519531 -8.910156 4.910156 -8.476562 4.484375 -7.90625 C 4.054688 -7.332031 3.84375 -6.640625 3.84375 -5.828125 C 3.84375 -5.066406 4.03125 -4.394531 4.40625 -3.8125 C 4.78125 -3.226562 5.347656 -2.769531 6.109375 -2.4375 C 6.878906 -2.101562 7.84375 -1.9375 9 -1.9375 C 10.113281 -1.9375 11.203125 -2.128906 12.265625 -2.515625 C 13.328125 -2.910156 14.328125 -3.570312 15.265625 -4.5 C 15.210938 -3.957031 15.21875 -3.4375 15.28125 -2.9375 C 15.34375 -2.4375 15.410156 -2.003906 15.484375 -1.640625 C 14.597656 -1.015625 13.613281 -0.535156 12.53125 -0.203125 C 11.457031 0.117188 10.15625 0.28125 8.625 0.28125 Z M 8.625 0.28125 "/></g></g></g><g fill="#000001" fill-opacity="1"><g transform="translate(59.669173, 13.652076)"><g><path d="M 8.484375 0.265625 C 6.828125 0.265625 5.410156 0.0234375 4.234375 -0.453125 C 3.066406 -0.929688 2.171875 -1.625 1.546875 -2.53125 C 0.921875 -3.4375 0.609375 -4.523438 0.609375 -5.796875 C 0.609375 -7.066406 0.921875 -8.148438 1.546875 -9.046875 C 2.171875 -9.953125 3.066406 -10.644531 4.234375 -11.125 C 5.410156 -11.601562 6.828125 -11.84375 8.484375 -11.84375 C 10.128906 -11.84375 11.535156 -11.601562 12.703125 -11.125 C 13.878906 -10.644531 14.773438 -9.953125 15.390625 -9.046875 C 16.015625 -8.148438 16.328125 -7.066406 16.328125 -5.796875 C 16.328125 -4.523438 16.015625 -3.4375 15.390625 -2.53125 C 14.773438 -1.625 13.878906 -0.929688 12.703125 -0.453125 C 11.535156 0.0234375 10.128906 0.265625 8.484375 0.265625 Z M 8.484375 -1.78125 C 9.941406 -1.78125 11.078125 -2.125 11.890625 -2.8125 C 12.710938 -3.507812 13.125 -4.476562 13.125 -5.71875 C 13.125 -7 12.710938 -7.992188 11.890625 -8.703125 C 11.078125 -9.421875 9.941406 -9.78125 8.484375 -9.78125 C 6.992188 -9.78125 5.847656 -9.421875 5.046875 -8.703125 C 4.242188 -7.992188 3.84375 -7 3.84375 -5.71875 C 3.84375 -4.476562 4.242188 -3.507812 5.046875 -2.8125 C 5.847656 -2.125 6.992188 -1.78125 8.484375 -1.78125 Z M 8.484375 -1.78125 "/></g></g></g><g fill="#000001" fill-opacity="1"><g transform="translate(78.614003, 13.652076)"><g><path d="M 15.390625 0 L 10.921875 0 C 9.898438 -1.507812 8.84375 -3.003906 7.75 -4.484375 C 6.65625 -5.960938 5.535156 -7.425781 4.390625 -8.875 C 4.359375 -7.394531 4.359375 -5.914062 4.390625 -4.4375 C 4.429688 -2.957031 4.492188 -1.476562 4.578125 0 L 1.234375 0 C 1.378906 -3.84375 1.378906 -7.679688 1.234375 -11.515625 C 1.523438 -11.472656 1.867188 -11.441406 2.265625 -11.421875 C 2.671875 -11.398438 3.085938 -11.382812 3.515625 -11.375 C 3.941406 -11.375 4.351562 -11.382812 4.75 -11.40625 C 5.15625 -11.425781 5.507812 -11.460938 5.8125 -11.515625 C 6.8125 -9.992188 7.84375 -8.484375 8.90625 -6.984375 C 9.976562 -5.484375 11.078125 -4 12.203125 -2.53125 C 12.222656 -4.03125 12.222656 -5.53125 12.203125 -7.03125 C 12.179688 -8.53125 12.128906 -10.023438 12.046875 -11.515625 C 12.617188 -11.421875 13.179688 -11.367188 13.734375 -11.359375 C 14.285156 -11.359375 14.820312 -11.410156 15.34375 -11.515625 C 15.207031 -7.679688 15.222656 -3.84375 15.390625 0 Z M 15.390625 0 "/></g></g></g><g fill="#000001" fill-opacity="1"><g transform="translate(97.236182, 13.652076)"><g><path d="M 8.625 0.28125 C 6.925781 0.28125 5.476562 0.03125 4.28125 -0.46875 C 3.082031 -0.96875 2.171875 -1.675781 1.546875 -2.59375 C 0.921875 -3.507812 0.609375 -4.585938 0.609375 -5.828125 C 0.609375 -7.140625 0.945312 -8.242188 1.625 -9.140625 C 2.3125 -10.035156 3.28125 -10.707031 4.53125 -11.15625 C 5.78125 -11.613281 7.25 -11.84375 8.9375 -11.84375 C 9.84375 -11.84375 10.816406 -11.753906 11.859375 -11.578125 C 12.910156 -11.410156 14.054688 -11.070312 15.296875 -10.5625 C 15.222656 -10.03125 15.1875 -9.546875 15.1875 -9.109375 C 15.1875 -8.671875 15.222656 -8.179688 15.296875 -7.640625 C 14.460938 -8.171875 13.671875 -8.578125 12.921875 -8.859375 C 12.171875 -9.148438 11.472656 -9.347656 10.828125 -9.453125 C 10.191406 -9.566406 9.617188 -9.625 9.109375 -9.625 C 8.046875 -9.632812 7.113281 -9.492188 6.3125 -9.203125 C 5.519531 -8.910156 4.910156 -8.476562 4.484375 -7.90625 C 4.054688 -7.332031 3.84375 -6.640625 3.84375 -5.828125 C 3.84375 -5.066406 4.03125 -4.394531 4.40625 -3.8125 C 4.78125 -3.226562 5.347656 -2.769531 6.109375 -2.4375 C 6.878906 -2.101562 7.84375 -1.9375 9 -1.9375 C 10.113281 -1.9375 11.203125 -2.128906 12.265625 -2.515625 C 13.328125 -2.910156 14.328125 -3.570312 15.265625 -4.5 C 15.210938 -3.957031 15.21875 -3.4375 15.28125 -2.9375 C 15.34375 -2.4375 15.410156 -2.003906 15.484375 -1.640625 C 14.597656 -1.015625 13.613281 -0.535156 12.53125 -0.203125 C 11.457031 0.117188 10.15625 0.28125 8.625 0.28125 Z M 8.625 0.28125 "/></g></g></g><g fill="#000001" fill-opacity="1"><g transform="translate(115.489601, 13.652076)"><g><path d="M 4.765625 0 L 1.234375 0 C 1.273438 -0.53125 1.304688 -1.179688 1.328125 -1.953125 C 1.359375 -2.722656 1.378906 -3.550781 1.390625 -4.4375 C 1.398438 -5.320312 1.398438 -6.207031 1.390625 -7.09375 C 1.378906 -7.976562 1.363281 -8.800781 1.34375 -9.5625 C 1.320312 -10.332031 1.285156 -10.984375 1.234375 -11.515625 C 1.835938 -11.421875 2.425781 -11.367188 3 -11.359375 C 3.582031 -11.359375 4.15625 -11.410156 4.71875 -11.515625 C 4.675781 -10.984375 4.640625 -10.332031 4.609375 -9.5625 C 4.585938 -8.789062 4.570312 -7.960938 4.5625 -7.078125 C 4.550781 -6.191406 4.550781 -5.304688 4.5625 -4.421875 C 4.582031 -3.535156 4.609375 -2.707031 4.640625 -1.9375 C 4.671875 -1.164062 4.710938 -0.519531 4.765625 0 Z M 4.765625 0 "/></g></g></g><g fill="#000001" fill-opacity="1"><g transform="translate(123.47952, 13.652076)"><g><path d="M 14 0 L 1.234375 0 C 1.273438 -0.53125 1.304688 -1.179688 1.328125 -1.953125 C 1.359375 -2.722656 1.378906 -3.550781 1.390625 -4.4375 C 1.398438 -5.320312 1.398438 -6.207031 1.390625 -7.09375 C 1.378906 -7.976562 1.363281 -8.800781 1.34375 -9.5625 C 1.320312 -10.332031 1.285156 -10.984375 1.234375 -11.515625 C 1.429688 -11.484375 1.769531 -11.453125 2.25 -11.421875 C 2.726562 -11.398438 3.289062 -11.378906 3.9375 -11.359375 C 4.59375 -11.347656 5.289062 -11.335938 6.03125 -11.328125 C 6.78125 -11.316406 7.539062 -11.304688 8.3125 -11.296875 C 9.09375 -11.296875 9.84375 -11.300781 10.5625 -11.3125 C 11.289062 -11.320312 11.945312 -11.335938 12.53125 -11.359375 C 13.125 -11.390625 13.613281 -11.425781 14 -11.46875 C 13.914062 -10.550781 13.914062 -9.625 14 -8.6875 C 13.625 -8.789062 13.148438 -8.882812 12.578125 -8.96875 C 12.003906 -9.050781 11.375 -9.125 10.6875 -9.1875 C 10 -9.257812 9.289062 -9.316406 8.5625 -9.359375 C 7.84375 -9.398438 7.140625 -9.429688 6.453125 -9.453125 C 5.773438 -9.472656 5.15625 -9.476562 4.59375 -9.46875 C 4.539062 -8.519531 4.523438 -7.578125 4.546875 -6.640625 C 5.253906 -6.628906 6 -6.625 6.78125 -6.625 C 7.5625 -6.632812 8.332031 -6.648438 9.09375 -6.671875 C 9.863281 -6.703125 10.578125 -6.734375 11.234375 -6.765625 C 11.890625 -6.804688 12.453125 -6.847656 12.921875 -6.890625 C 12.835938 -6.128906 12.835938 -5.363281 12.921875 -4.59375 C 12.453125 -4.632812 11.890625 -4.671875 11.234375 -4.703125 C 10.578125 -4.734375 9.863281 -4.757812 9.09375 -4.78125 C 8.332031 -4.8125 7.5625 -4.828125 6.78125 -4.828125 C 6 -4.835938 5.253906 -4.832031 4.546875 -4.8125 C 4.546875 -4.34375 4.550781 -3.878906 4.5625 -3.421875 C 4.570312 -2.972656 4.59375 -2.519531 4.625 -2.0625 C 5.1875 -2.050781 5.8125 -2.054688 6.5 -2.078125 C 7.1875 -2.097656 7.890625 -2.128906 8.609375 -2.171875 C 9.328125 -2.210938 10.03125 -2.265625 10.71875 -2.328125 C 11.40625 -2.390625 12.03125 -2.460938 12.59375 -2.546875 C 13.15625 -2.628906 13.625 -2.722656 14 -2.828125 C 13.914062 -1.878906 13.914062 -0.9375 14 0 Z M 14 0 "/></g></g></g><g fill="#000001" fill-opacity="1"><g transform="translate(140.319412, 13.652076)"><g><path d="M 4.71875 0 L 1.234375 0 C 1.273438 -0.53125 1.304688 -1.179688 1.328125 -1.953125 C 1.359375 -2.722656 1.378906 -3.550781 1.390625 -4.4375 C 1.398438 -5.320312 1.398438 -6.207031 1.390625 -7.09375 C 1.378906 -7.976562 1.363281 -8.800781 1.34375 -9.5625 C 1.320312 -10.332031 1.285156 -10.984375 1.234375 -11.515625 C 1.921875 -11.503906 2.546875 -11.5 3.109375 -11.5 C 3.671875 -11.5 4.207031 -11.503906 4.71875 -11.515625 C 5.226562 -11.535156 5.75 -11.550781 6.28125 -11.5625 C 6.8125 -11.570312 7.394531 -11.578125 8.03125 -11.578125 C 10.289062 -11.578125 11.953125 -11.296875 13.015625 -10.734375 C 14.085938 -10.179688 14.625 -9.332031 14.625 -8.1875 C 14.625 -7.625 14.503906 -7.140625 14.265625 -6.734375 C 14.035156 -6.335938 13.726562 -6.007812 13.34375 -5.75 C 12.957031 -5.488281 12.546875 -5.285156 12.109375 -5.140625 C 11.671875 -4.992188 11.25 -4.890625 10.84375 -4.828125 C 10.445312 -4.773438 10.101562 -4.75 9.8125 -4.75 L 9.8125 -4.5 C 10.613281 -4.34375 11.3125 -4.082031 11.90625 -3.71875 C 12.507812 -3.351562 13.019531 -2.941406 13.4375 -2.484375 C 13.863281 -2.023438 14.210938 -1.570312 14.484375 -1.125 C 14.765625 -0.675781 14.972656 -0.300781 15.109375 0 L 10.703125 0 C 10.609375 -0.925781 10.394531 -1.679688 10.0625 -2.265625 C 9.738281 -2.847656 9.265625 -3.289062 8.640625 -3.59375 C 8.023438 -3.894531 7.226562 -4.085938 6.25 -4.171875 C 6 -4.203125 5.722656 -4.222656 5.421875 -4.234375 C 5.128906 -4.242188 4.828125 -4.25 4.515625 -4.25 C 4.535156 -3.519531 4.550781 -2.90625 4.5625 -2.40625 C 4.582031 -1.90625 4.601562 -1.46875 4.625 -1.09375 C 4.65625 -0.726562 4.6875 -0.363281 4.71875 0 Z M 4.5 -6.15625 C 4.945312 -6.132812 5.445312 -6.101562 6 -6.0625 C 6.550781 -6.03125 7.144531 -6.015625 7.78125 -6.015625 C 8.914062 -6.015625 9.773438 -6.160156 10.359375 -6.453125 C 10.953125 -6.753906 11.25 -7.21875 11.25 -7.84375 C 11.25 -8.457031 10.945312 -8.890625 10.34375 -9.140625 C 9.738281 -9.390625 8.929688 -9.515625 7.921875 -9.515625 C 7.253906 -9.515625 6.609375 -9.503906 5.984375 -9.484375 C 5.359375 -9.472656 4.882812 -9.46875 4.5625 -9.46875 C 4.539062 -8.957031 4.523438 -8.429688 4.515625 -7.890625 C 4.503906 -7.347656 4.5 -6.769531 4.5 -6.15625 Z M 4.5 -6.15625 "/></g></g></g><g fill="#000001" fill-opacity="1"><g transform="translate(157.89679, 13.652076)"><g><path d="M 8.625 0.234375 C 6.894531 0.234375 5.429688 -0.015625 4.234375 -0.515625 C 3.046875 -1.015625 2.144531 -1.71875 1.53125 -2.625 C 0.914062 -3.53125 0.609375 -4.597656 0.609375 -5.828125 C 0.609375 -7.128906 0.9375 -8.222656 1.59375 -9.109375 C 2.257812 -9.992188 3.207031 -10.664062 4.4375 -11.125 C 5.675781 -11.582031 7.144531 -11.8125 8.84375 -11.8125 C 9.488281 -11.8125 10.210938 -11.769531 11.015625 -11.6875 C 11.816406 -11.613281 12.65625 -11.484375 13.53125 -11.296875 C 14.40625 -11.117188 15.253906 -10.851562 16.078125 -10.5 C 15.992188 -9.894531 15.953125 -9.347656 15.953125 -8.859375 C 15.953125 -8.367188 15.988281 -7.941406 16.0625 -7.578125 C 15.113281 -8.191406 14.007812 -8.679688 12.75 -9.046875 C 11.488281 -9.410156 10.1875 -9.59375 8.84375 -9.59375 C 7.800781 -9.59375 6.90625 -9.4375 6.15625 -9.125 C 5.40625 -8.8125 4.832031 -8.375 4.4375 -7.8125 C 4.039062 -7.25 3.84375 -6.585938 3.84375 -5.828125 C 3.84375 -5.054688 4.03125 -4.378906 4.40625 -3.796875 C 4.78125 -3.222656 5.328125 -2.769531 6.046875 -2.4375 C 6.765625 -2.113281 7.625 -1.953125 8.625 -1.953125 C 8.957031 -1.953125 9.332031 -1.976562 9.75 -2.03125 C 10.175781 -2.082031 10.613281 -2.179688 11.0625 -2.328125 C 11.519531 -2.484375 11.960938 -2.703125 12.390625 -2.984375 C 12.816406 -3.273438 13.195312 -3.65625 13.53125 -4.125 C 12.726562 -4.125 11.929688 -4.109375 11.140625 -4.078125 C 10.359375 -4.054688 9.648438 -4.019531 9.015625 -3.96875 C 8.390625 -3.925781 7.90625 -3.867188 7.5625 -3.796875 C 7.632812 -4.148438 7.660156 -4.566406 7.640625 -5.046875 C 7.628906 -5.535156 7.582031 -6 7.5 -6.4375 C 8.425781 -6.382812 9.390625 -6.347656 10.390625 -6.328125 C 11.390625 -6.316406 12.378906 -6.316406 13.359375 -6.328125 C 14.347656 -6.347656 15.273438 -6.382812 16.140625 -6.4375 C 16.066406 -5.957031 16.03125 -5.394531 16.03125 -4.75 C 16.03125 -4.113281 16.066406 -3.523438 16.140625 -2.984375 C 15.703125 -2.296875 15.085938 -1.707031 14.296875 -1.21875 C 13.515625 -0.738281 12.632812 -0.375 11.65625 -0.125 C 10.6875 0.113281 9.675781 0.234375 8.625 0.234375 Z M 8.625 0.234375 "/></g></g></g><g fill="#000001" fill-opacity="1"><g transform="translate(176.810902, 13.652076)"><g><path d="M 14 0 L 1.234375 0 C 1.273438 -0.53125 1.304688 -1.179688 1.328125 -1.953125 C 1.359375 -2.722656 1.378906 -3.550781 1.390625 -4.4375 C 1.398438 -5.320312 1.398438 -6.207031 1.390625 -7.09375 C 1.378906 -7.976562 1.363281 -8.800781 1.34375 -9.5625 C 1.320312 -10.332031 1.285156 -10.984375 1.234375 -11.515625 C 1.429688 -11.484375 1.769531 -11.453125 2.25 -11.421875 C 2.726562 -11.398438 3.289062 -11.378906 3.9375 -11.359375 C 4.59375 -11.347656 5.289062 -11.335938 6.03125 -11.328125 C 6.78125 -11.316406 7.539062 -11.304688 8.3125 -11.296875 C 9.09375 -11.296875 9.84375 -11.300781 10.5625 -11.3125 C 11.289062 -11.320312 11.945312 -11.335938 12.53125 -11.359375 C 13.125 -11.390625 13.613281 -11.425781 14 -11.46875 C 13.914062 -10.550781 13.914062 -9.625 14 -8.6875 C 13.625 -8.789062 13.148438 -8.882812 12.578125 -8.96875 C 12.003906 -9.050781 11.375 -9.125 10.6875 -9.1875 C 10 -9.257812 9.289062 -9.316406 8.5625 -9.359375 C 7.84375 -9.398438 7.140625 -9.429688 6.453125 -9.453125 C 5.773438 -9.472656 5.15625 -9.476562 4.59375 -9.46875 C 4.539062 -8.519531 4.523438 -7.578125 4.546875 -6.640625 C 5.253906 -6.628906 6 -6.625 6.78125 -6.625 C 7.5625 -6.632812 8.332031 -6.648438 9.09375 -6.671875 C 9.863281 -6.703125 10.578125 -6.734375 11.234375 -6.765625 C 11.890625 -6.804688 12.453125 -6.847656 12.921875 -6.890625 C 12.835938 -6.128906 12.835938 -5.363281 12.921875 -4.59375 C 12.453125 -4.632812 11.890625 -4.671875 11.234375 -4.703125 C 10.578125 -4.734375 9.863281 -4.757812 9.09375 -4.78125 C 8.332031 -4.8125 7.5625 -4.828125 6.78125 -4.828125 C 6 -4.835938 5.253906 -4.832031 4.546875 -4.8125 C 4.546875 -4.34375 4.550781 -3.878906 4.5625 -3.421875 C 4.570312 -2.972656 4.59375 -2.519531 4.625 -2.0625 C 5.1875 -2.050781 5.8125 -2.054688 6.5 -2.078125 C 7.1875 -2.097656 7.890625 -2.128906 8.609375 -2.171875 C 9.328125 -2.210938 10.03125 -2.265625 10.71875 -2.328125 C 11.40625 -2.390625 12.03125 -2.460938 12.59375 -2.546875 C 13.15625 -2.628906 13.625 -2.722656 14 -2.828125 C 13.914062 -1.878906 13.914062 -0.9375 14 0 Z M 14 0 "/></g></g></g><g fill="#000001" fill-opacity="1"><g transform="translate(193.650794, 13.652076)"><g><path d="M 4.71875 0 L 1.234375 0 C 1.273438 -0.53125 1.304688 -1.179688 1.328125 -1.953125 C 1.359375 -2.722656 1.378906 -3.550781 1.390625 -4.4375 C 1.398438 -5.320312 1.398438 -6.207031 1.390625 -7.09375 C 1.378906 -7.976562 1.363281 -8.800781 1.34375 -9.5625 C 1.320312 -10.332031 1.285156 -10.984375 1.234375 -11.515625 C 1.921875 -11.503906 2.546875 -11.5 3.109375 -11.5 C 3.671875 -11.5 4.207031 -11.503906 4.71875 -11.515625 C 5.226562 -11.535156 5.75 -11.550781 6.28125 -11.5625 C 6.8125 -11.570312 7.394531 -11.578125 8.03125 -11.578125 C 10.289062 -11.578125 11.953125 -11.296875 13.015625 -10.734375 C 14.085938 -10.179688 14.625 -9.332031 14.625 -8.1875 C 14.625 -7.625 14.503906 -7.140625 14.265625 -6.734375 C 14.035156 -6.335938 13.726562 -6.007812 13.34375 -5.75 C 12.957031 -5.488281 12.546875 -5.285156 12.109375 -5.140625 C 11.671875 -4.992188 11.25 -4.890625 10.84375 -4.828125 C 10.445312 -4.773438 10.101562 -4.75 9.8125 -4.75 L 9.8125 -4.5 C 10.613281 -4.34375 11.3125 -4.082031 11.90625 -3.71875 C 12.507812 -3.351562 13.019531 -2.941406 13.4375 -2.484375 C 13.863281 -2.023438 14.210938 -1.570312 14.484375 -1.125 C 14.765625 -0.675781 14.972656 -0.300781 15.109375 0 L 10.703125 0 C 10.609375 -0.925781 10.394531 -1.679688 10.0625 -2.265625 C 9.738281 -2.847656 9.265625 -3.289062 8.640625 -3.59375 C 8.023438 -3.894531 7.226562 -4.085938 6.25 -4.171875 C 6 -4.203125 5.722656 -4.222656 5.421875 -4.234375 C 5.128906 -4.242188 4.828125 -4.25 4.515625 -4.25 C 4.535156 -3.519531 4.550781 -2.90625 4.5625 -2.40625 C 4.582031 -1.90625 4.601562 -1.46875 4.625 -1.09375 C 4.65625 -0.726562 4.6875 -0.363281 4.71875 0 Z M 4.5 -6.15625 C 4.945312 -6.132812 5.445312 -6.101562 6 -6.0625 C 6.550781 -6.03125 7.144531 -6.015625 7.78125 -6.015625 C 8.914062 -6.015625 9.773438 -6.160156 10.359375 -6.453125 C 10.953125 -6.753906 11.25 -7.21875 11.25 -7.84375 C 11.25 -8.457031 10.945312 -8.890625 10.34375 -9.140625 C 9.738281 -9.390625 8.929688 -9.515625 7.921875 -9.515625 C 7.253906 -9.515625 6.609375 -9.503906 5.984375 -9.484375 C 5.359375 -9.472656 4.882812 -9.46875 4.5625 -9.46875 C 4.539062 -8.957031 4.523438 -8.429688 4.515625 -7.890625 C 4.503906 -7.347656 4.5 -6.769531 4.5 -6.15625 Z M 4.5 -6.15625 "/></g></g></g><g fill="#000001" fill-opacity="1"><g transform="translate(211.228172, 13.652076)"><g><path d="M 4.765625 0 L 1.234375 0 C 1.273438 -0.53125 1.304688 -1.179688 1.328125 -1.953125 C 1.359375 -2.722656 1.378906 -3.550781 1.390625 -4.4375 C 1.398438 -5.320312 1.398438 -6.207031 1.390625 -7.09375 C 1.378906 -7.976562 1.363281 -8.800781 1.34375 -9.5625 C 1.320312 -10.332031 1.285156 -10.984375 1.234375 -11.515625 C 1.835938 -11.421875 2.425781 -11.367188 3 -11.359375 C 3.582031 -11.359375 4.15625 -11.410156 4.71875 -11.515625 C 4.675781 -10.984375 4.640625 -10.332031 4.609375 -9.5625 C 4.585938 -8.789062 4.570312 -7.960938 4.5625 -7.078125 C 4.550781 -6.191406 4.550781 -5.304688 4.5625 -4.421875 C 4.582031 -3.535156 4.609375 -2.707031 4.640625 -1.9375 C 4.671875 -1.164062 4.710938 -0.519531 4.765625 0 Z M 4.765625 0 "/></g></g></g><g fill="#000001" fill-opacity="1"><g transform="translate(219.218091, 13.652076)"><g><path d="M 14 0 L 1.234375 0 C 1.273438 -0.53125 1.304688 -1.179688 1.328125 -1.953125 C 1.359375 -2.722656 1.378906 -3.550781 1.390625 -4.4375 C 1.398438 -5.320312 1.398438 -6.207031 1.390625 -7.09375 C 1.378906 -7.976562 1.363281 -8.800781 1.34375 -9.5625 C 1.320312 -10.332031 1.285156 -10.984375 1.234375 -11.515625 C 1.429688 -11.484375 1.769531 -11.453125 2.25 -11.421875 C 2.726562 -11.398438 3.289062 -11.378906 3.9375 -11.359375 C 4.59375 -11.347656 5.289062 -11.335938 6.03125 -11.328125 C 6.78125 -11.316406 7.539062 -11.304688 8.3125 -11.296875 C 9.09375 -11.296875 9.84375 -11.300781 10.5625 -11.3125 C 11.289062 -11.320312 11.945312 -11.335938 12.53125 -11.359375 C 13.125 -11.390625 13.613281 -11.425781 14 -11.46875 C 13.914062 -10.550781 13.914062 -9.625 14 -8.6875 C 13.625 -8.789062 13.148438 -8.882812 12.578125 -8.96875 C 12.003906 -9.050781 11.375 -9.125 10.6875 -9.1875 C 10 -9.257812 9.289062 -9.316406 8.5625 -9.359375 C 7.84375 -9.398438 7.140625 -9.429688 6.453125 -9.453125 C 5.773438 -9.472656 5.15625 -9.476562 4.59375 -9.46875 C 4.539062 -8.519531 4.523438 -7.578125 4.546875 -6.640625 C 5.253906 -6.628906 6 -6.625 6.78125 -6.625 C 7.5625 -6.632812 8.332031 -6.648438 9.09375 -6.671875 C 9.863281 -6.703125 10.578125 -6.734375 11.234375 -6.765625 C 11.890625 -6.804688 12.453125 -6.847656 12.921875 -6.890625 C 12.835938 -6.128906 12.835938 -5.363281 12.921875 -4.59375 C 12.453125 -4.632812 11.890625 -4.671875 11.234375 -4.703125 C 10.578125 -4.734375 9.863281 -4.757812 9.09375 -4.78125 C 8.332031 -4.8125 7.5625 -4.828125 6.78125 -4.828125 C 6 -4.835938 5.253906 -4.832031 4.546875 -4.8125 C 4.546875 -4.34375 4.550781 -3.878906 4.5625 -3.421875 C 4.570312 -2.972656 4.59375 -2.519531 4.625 -2.0625 C 5.1875 -2.050781 5.8125 -2.054688 6.5 -2.078125 C 7.1875 -2.097656 7.890625 -2.128906 8.609375 -2.171875 C 9.328125 -2.210938 10.03125 -2.265625 10.71875 -2.328125 C 11.40625 -2.390625 12.03125 -2.460938 12.59375 -2.546875 C 13.15625 -2.628906 13.625 -2.722656 14 -2.828125 C 13.914062 -1.878906 13.914062 -0.9375 14 0 Z M 14 0 "/></g></g></g><g fill="#000001" fill-opacity="1"><g transform="translate(9.609617, 34.996978)"><g><path d="M 15.34375 0 L 11.53125 0 C 11.425781 -0.320312 11.304688 -0.671875 11.171875 -1.046875 C 11.035156 -1.429688 10.894531 -1.828125 10.75 -2.234375 C 10.132812 -2.253906 9.46875 -2.265625 8.75 -2.265625 C 8.03125 -2.265625 7.304688 -2.265625 6.578125 -2.265625 C 5.859375 -2.265625 5.1875 -2.253906 4.5625 -2.234375 L 3.71875 0 L 0.078125 0 C 0.984375 -1.925781 1.851562 -3.847656 2.6875 -5.765625 C 3.53125 -7.679688 4.328125 -9.597656 5.078125 -11.515625 C 5.410156 -11.472656 5.804688 -11.4375 6.265625 -11.40625 C 6.722656 -11.375 7.203125 -11.351562 7.703125 -11.34375 C 8.203125 -11.34375 8.679688 -11.351562 9.140625 -11.375 C 9.597656 -11.40625 9.988281 -11.453125 10.3125 -11.515625 C 11.0625 -9.597656 11.859375 -7.679688 12.703125 -5.765625 C 13.554688 -3.847656 14.4375 -1.925781 15.34375 0 Z M 5.28125 -4.09375 C 6.007812 -4.070312 6.800781 -4.0625 7.65625 -4.0625 C 8.519531 -4.0625 9.316406 -4.070312 10.046875 -4.09375 C 9.734375 -4.914062 9.421875 -5.707031 9.109375 -6.46875 C 8.796875 -7.226562 8.507812 -7.898438 8.25 -8.484375 C 7.988281 -9.078125 7.785156 -9.507812 7.640625 -9.78125 C 7.492188 -9.507812 7.296875 -9.082031 7.046875 -8.5 C 6.796875 -7.914062 6.519531 -7.238281 6.21875 -6.46875 C 5.914062 -5.707031 5.601562 -4.914062 5.28125 -4.09375 Z M 5.28125 -4.09375 "/></g></g></g><g fill="#000001" fill-opacity="1"><g transform="translate(27.03336, 34.996978)"><g><path d="M 1.234375 0 C 1.273438 -0.394531 1.304688 -0.894531 1.328125 -1.5 C 1.347656 -2.101562 1.359375 -2.769531 1.359375 -3.5 C 1.367188 -4.238281 1.375 -4.988281 1.375 -5.75 C 1.375 -6.519531 1.367188 -7.269531 1.359375 -8 C 1.359375 -8.738281 1.347656 -9.410156 1.328125 -10.015625 C 1.304688 -10.617188 1.273438 -11.117188 1.234375 -11.515625 C 2.003906 -11.515625 2.691406 -11.519531 3.296875 -11.53125 C 3.910156 -11.539062 4.472656 -11.550781 4.984375 -11.5625 C 5.492188 -11.570312 5.984375 -11.582031 6.453125 -11.59375 C 6.929688 -11.601562 7.429688 -11.609375 7.953125 -11.609375 C 9.671875 -11.609375 11.140625 -11.378906 12.359375 -10.921875 C 13.585938 -10.460938 14.53125 -9.800781 15.1875 -8.9375 C 15.84375 -8.082031 16.171875 -7.046875 16.171875 -5.828125 C 16.171875 -4.609375 15.828125 -3.554688 15.140625 -2.671875 C 14.460938 -1.796875 13.488281 -1.125 12.21875 -0.65625 C 10.945312 -0.195312 9.414062 0.03125 7.625 0.03125 C 6.632812 0.03125 5.597656 0.0234375 4.515625 0.015625 C 3.429688 0.00390625 2.335938 0 1.234375 0 Z M 4.515625 -9.53125 C 4.484375 -8.289062 4.46875 -7.066406 4.46875 -5.859375 C 4.476562 -4.648438 4.5 -3.410156 4.53125 -2.140625 C 4.851562 -2.128906 5.289062 -2.097656 5.84375 -2.046875 C 6.40625 -2.003906 7 -1.984375 7.625 -1.984375 C 9.300781 -1.984375 10.609375 -2.320312 11.546875 -3 C 12.484375 -3.675781 12.953125 -4.617188 12.953125 -5.828125 C 12.953125 -7.023438 12.488281 -7.953125 11.5625 -8.609375 C 10.644531 -9.273438 9.359375 -9.609375 7.703125 -9.609375 C 7.296875 -9.609375 6.816406 -9.59375 6.265625 -9.5625 C 5.710938 -9.53125 5.128906 -9.519531 4.515625 -9.53125 Z M 4.515625 -9.53125 "/></g></g></g><g fill="#000001" fill-opacity="1"><g transform="translate(45.824545, 34.996978)"><g><path d="M 17.359375 0 L 13.90625 0 C 13.945312 -0.414062 13.976562 -0.945312 14 -1.59375 C 14.019531 -2.25 14.035156 -2.96875 14.046875 -3.75 C 14.054688 -4.53125 14.0625 -5.320312 14.0625 -6.125 C 14.0625 -6.9375 14.054688 -7.707031 14.046875 -8.4375 C 12.816406 -5.632812 11.679688 -2.804688 10.640625 0.046875 L 7.78125 0.046875 C 7.28125 -1.390625 6.742188 -2.8125 6.171875 -4.21875 C 5.609375 -5.625 5.015625 -7.019531 4.390625 -8.40625 C 4.378906 -7.6875 4.375 -6.921875 4.375 -6.109375 C 4.382812 -5.296875 4.394531 -4.5 4.40625 -3.71875 C 4.425781 -2.9375 4.453125 -2.21875 4.484375 -1.5625 C 4.515625 -0.914062 4.550781 -0.394531 4.59375 0 L 1.234375 0 C 1.273438 -0.53125 1.304688 -1.179688 1.328125 -1.953125 C 1.359375 -2.722656 1.378906 -3.550781 1.390625 -4.4375 C 1.398438 -5.320312 1.398438 -6.207031 1.390625 -7.09375 C 1.378906 -7.976562 1.363281 -8.800781 1.34375 -9.5625 C 1.320312 -10.332031 1.285156 -10.984375 1.234375 -11.515625 C 1.523438 -11.472656 1.882812 -11.4375 2.3125 -11.40625 C 2.75 -11.382812 3.195312 -11.375 3.65625 -11.375 C 4.125 -11.375 4.566406 -11.382812 4.984375 -11.40625 C 5.398438 -11.4375 5.742188 -11.472656 6.015625 -11.515625 C 6.960938 -8.597656 8.035156 -5.757812 9.234375 -3 C 9.867188 -4.382812 10.460938 -5.785156 11.015625 -7.203125 C 11.566406 -8.628906 12.09375 -10.066406 12.59375 -11.515625 C 12.882812 -11.472656 13.234375 -11.4375 13.640625 -11.40625 C 14.054688 -11.382812 14.492188 -11.375 14.953125 -11.375 C 15.410156 -11.375 15.84375 -11.382812 16.25 -11.40625 C 16.664062 -11.4375 17.019531 -11.472656 17.3125 -11.515625 C 17.269531 -10.984375 17.234375 -10.332031 17.203125 -9.5625 C 17.179688 -8.789062 17.164062 -7.960938 17.15625 -7.078125 C 17.144531 -6.191406 17.144531 -5.304688 17.15625 -4.421875 C 17.175781 -3.535156 17.203125 -2.707031 17.234375 -1.9375 C 17.265625 -1.164062 17.304688 -0.519531 17.359375 0 Z M 17.359375 0 "/></g></g></g><g fill="#000001" fill-opacity="1"><g transform="translate(66.413379, 34.996978)"><g><path d="M 4.765625 0 L 1.234375 0 C 1.273438 -0.53125 1.304688 -1.179688 1.328125 -1.953125 C 1.359375 -2.722656 1.378906 -3.550781 1.390625 -4.4375 C 1.398438 -5.320312 1.398438 -6.207031 1.390625 -7.09375 C 1.378906 -7.976562 1.363281 -8.800781 1.34375 -9.5625 C 1.320312 -10.332031 1.285156 -10.984375 1.234375 -11.515625 C 1.835938 -11.421875 2.425781 -11.367188 3 -11.359375 C 3.582031 -11.359375 4.15625 -11.410156 4.71875 -11.515625 C 4.675781 -10.984375 4.640625 -10.332031 4.609375 -9.5625 C 4.585938 -8.789062 4.570312 -7.960938 4.5625 -7.078125 C 4.550781 -6.191406 4.550781 -5.304688 4.5625 -4.421875 C 4.582031 -3.535156 4.609375 -2.707031 4.640625 -1.9375 C 4.671875 -1.164062 4.710938 -0.519531 4.765625 0 Z M 4.765625 0 "/></g></g></g><g fill="#000001" fill-opacity="1"><g transform="translate(74.403302, 34.996978)"><g><path d="M 15.390625 0 L 10.921875 0 C 9.898438 -1.507812 8.84375 -3.003906 7.75 -4.484375 C 6.65625 -5.960938 5.535156 -7.425781 4.390625 -8.875 C 4.359375 -7.394531 4.359375 -5.914062 4.390625 -4.4375 C 4.429688 -2.957031 4.492188 -1.476562 4.578125 0 L 1.234375 0 C 1.378906 -3.84375 1.378906 -7.679688 1.234375 -11.515625 C 1.523438 -11.472656 1.867188 -11.441406 2.265625 -11.421875 C 2.671875 -11.398438 3.085938 -11.382812 3.515625 -11.375 C 3.941406 -11.375 4.351562 -11.382812 4.75 -11.40625 C 5.15625 -11.425781 5.507812 -11.460938 5.8125 -11.515625 C 6.8125 -9.992188 7.84375 -8.484375 8.90625 -6.984375 C 9.976562 -5.484375 11.078125 -4 12.203125 -2.53125 C 12.222656 -4.03125 12.222656 -5.53125 12.203125 -7.03125 C 12.179688 -8.53125 12.128906 -10.023438 12.046875 -11.515625 C 12.617188 -11.421875 13.179688 -11.367188 13.734375 -11.359375 C 14.285156 -11.359375 14.820312 -11.410156 15.34375 -11.515625 C 15.207031 -7.679688 15.222656 -3.84375 15.390625 0 Z M 15.390625 0 "/></g></g></g><g fill="#000001" fill-opacity="1"><g transform="translate(93.025478, 34.996978)"><g><path d="M 4.765625 0 L 1.234375 0 C 1.273438 -0.53125 1.304688 -1.179688 1.328125 -1.953125 C 1.359375 -2.722656 1.378906 -3.550781 1.390625 -4.4375 C 1.398438 -5.320312 1.398438 -6.207031 1.390625 -7.09375 C 1.378906 -7.976562 1.363281 -8.800781 1.34375 -9.5625 C 1.320312 -10.332031 1.285156 -10.984375 1.234375 -11.515625 C 1.835938 -11.421875 2.425781 -11.367188 3 -11.359375 C 3.582031 -11.359375 4.15625 -11.410156 4.71875 -11.515625 C 4.675781 -10.984375 4.640625 -10.332031 4.609375 -9.5625 C 4.585938 -8.789062 4.570312 -7.960938 4.5625 -7.078125 C 4.550781 -6.191406 4.550781 -5.304688 4.5625 -4.421875 C 4.582031 -3.535156 4.609375 -2.707031 4.640625 -1.9375 C 4.671875 -1.164062 4.710938 -0.519531 4.765625 0 Z M 4.765625 0 "/></g></g></g><g fill="#000001" fill-opacity="1"><g transform="translate(101.015396, 34.996978)"><g><path d="M 8.34375 0.1875 C 6.945312 0.1875 5.609375 0.0546875 4.328125 -0.203125 C 3.054688 -0.460938 1.9375 -0.773438 0.96875 -1.140625 C 1.125 -2.148438 1.125 -3.160156 0.96875 -4.171875 C 1.332031 -3.796875 1.800781 -3.46875 2.375 -3.1875 C 2.957031 -2.914062 3.597656 -2.691406 4.296875 -2.515625 C 4.992188 -2.347656 5.71875 -2.21875 6.46875 -2.125 C 7.21875 -2.039062 7.941406 -2 8.640625 -2 C 9.648438 -2 10.367188 -2.109375 10.796875 -2.328125 C 11.222656 -2.546875 11.4375 -2.867188 11.4375 -3.296875 C 11.4375 -3.679688 11.296875 -3.96875 11.015625 -4.15625 C 10.734375 -4.34375 10.253906 -4.484375 9.578125 -4.578125 C 8.910156 -4.679688 8 -4.785156 6.84375 -4.890625 C 5.59375 -4.992188 4.515625 -5.160156 3.609375 -5.390625 C 2.710938 -5.617188 2.023438 -5.953125 1.546875 -6.390625 C 1.078125 -6.835938 0.84375 -7.445312 0.84375 -8.21875 C 0.84375 -10.5625 2.960938 -11.734375 7.203125 -11.734375 C 8.191406 -11.734375 9.070312 -11.691406 9.84375 -11.609375 C 10.625 -11.535156 11.359375 -11.429688 12.046875 -11.296875 C 12.734375 -11.160156 13.441406 -11 14.171875 -10.8125 C 14.023438 -9.863281 14.023438 -8.90625 14.171875 -7.9375 C 13.273438 -8.351562 12.226562 -8.722656 11.03125 -9.046875 C 9.84375 -9.378906 8.53125 -9.546875 7.09375 -9.546875 C 6.0625 -9.546875 5.316406 -9.441406 4.859375 -9.234375 C 4.410156 -9.035156 4.1875 -8.726562 4.1875 -8.3125 C 4.1875 -7.945312 4.316406 -7.660156 4.578125 -7.453125 C 4.835938 -7.242188 5.265625 -7.082031 5.859375 -6.96875 C 6.453125 -6.851562 7.238281 -6.757812 8.21875 -6.6875 C 9.625 -6.582031 10.8125 -6.421875 11.78125 -6.203125 C 12.757812 -5.984375 13.503906 -5.644531 14.015625 -5.1875 C 14.535156 -4.726562 14.796875 -4.09375 14.796875 -3.28125 C 14.796875 -0.96875 12.644531 0.1875 8.34375 0.1875 Z M 8.34375 0.1875 "/></g></g></g><g fill="#000001" fill-opacity="1"><g transform="translate(118.654247, 34.996978)"><g><path d="M 8.78125 0 L 5.25 0 C 5.300781 -0.519531 5.335938 -1.160156 5.359375 -1.921875 C 5.390625 -2.691406 5.40625 -3.507812 5.40625 -4.375 C 5.414062 -5.25 5.414062 -6.125 5.40625 -7 C 5.40625 -7.882812 5.390625 -8.707031 5.359375 -9.46875 C 4.210938 -9.445312 3.226562 -9.390625 2.40625 -9.296875 C 1.59375 -9.210938 0.816406 -9.09375 0.078125 -8.9375 C 0.234375 -9.800781 0.234375 -10.660156 0.078125 -11.515625 C 1.390625 -11.472656 2.609375 -11.441406 3.734375 -11.421875 C 4.859375 -11.410156 5.953125 -11.40625 7.015625 -11.40625 C 8.078125 -11.40625 9.171875 -11.410156 10.296875 -11.421875 C 11.429688 -11.441406 12.65625 -11.472656 13.96875 -11.515625 C 13.8125 -10.660156 13.8125 -9.800781 13.96875 -8.9375 C 13.21875 -9.09375 12.429688 -9.210938 11.609375 -9.296875 C 10.785156 -9.390625 9.789062 -9.445312 8.625 -9.46875 C 8.601562 -8.695312 8.585938 -7.875 8.578125 -7 C 8.578125 -6.125 8.582031 -5.25 8.59375 -4.375 C 8.601562 -3.5 8.625 -2.679688 8.65625 -1.921875 C 8.6875 -1.160156 8.726562 -0.519531 8.78125 0 Z M 8.78125 0 "/></g></g></g><g fill="#000001" fill-opacity="1"><g transform="translate(134.695181, 34.996978)"><g><path d="M 4.71875 0 L 1.234375 0 C 1.273438 -0.53125 1.304688 -1.179688 1.328125 -1.953125 C 1.359375 -2.722656 1.378906 -3.550781 1.390625 -4.4375 C 1.398438 -5.320312 1.398438 -6.207031 1.390625 -7.09375 C 1.378906 -7.976562 1.363281 -8.800781 1.34375 -9.5625 C 1.320312 -10.332031 1.285156 -10.984375 1.234375 -11.515625 C 1.921875 -11.503906 2.546875 -11.5 3.109375 -11.5 C 3.671875 -11.5 4.207031 -11.503906 4.71875 -11.515625 C 5.226562 -11.535156 5.75 -11.550781 6.28125 -11.5625 C 6.8125 -11.570312 7.394531 -11.578125 8.03125 -11.578125 C 10.289062 -11.578125 11.953125 -11.296875 13.015625 -10.734375 C 14.085938 -10.179688 14.625 -9.332031 14.625 -8.1875 C 14.625 -7.625 14.503906 -7.140625 14.265625 -6.734375 C 14.035156 -6.335938 13.726562 -6.007812 13.34375 -5.75 C 12.957031 -5.488281 12.546875 -5.285156 12.109375 -5.140625 C 11.671875 -4.992188 11.25 -4.890625 10.84375 -4.828125 C 10.445312 -4.773438 10.101562 -4.75 9.8125 -4.75 L 9.8125 -4.5 C 10.613281 -4.34375 11.3125 -4.082031 11.90625 -3.71875 C 12.507812 -3.351562 13.019531 -2.941406 13.4375 -2.484375 C 13.863281 -2.023438 14.210938 -1.570312 14.484375 -1.125 C 14.765625 -0.675781 14.972656 -0.300781 15.109375 0 L 10.703125 0 C 10.609375 -0.925781 10.394531 -1.679688 10.0625 -2.265625 C 9.738281 -2.847656 9.265625 -3.289062 8.640625 -3.59375 C 8.023438 -3.894531 7.226562 -4.085938 6.25 -4.171875 C 6 -4.203125 5.722656 -4.222656 5.421875 -4.234375 C 5.128906 -4.242188 4.828125 -4.25 4.515625 -4.25 C 4.535156 -3.519531 4.550781 -2.90625 4.5625 -2.40625 C 4.582031 -1.90625 4.601562 -1.46875 4.625 -1.09375 C 4.65625 -0.726562 4.6875 -0.363281 4.71875 0 Z M 4.5 -6.15625 C 4.945312 -6.132812 5.445312 -6.101562 6 -6.0625 C 6.550781 -6.03125 7.144531 -6.015625 7.78125 -6.015625 C 8.914062 -6.015625 9.773438 -6.160156 10.359375 -6.453125 C 10.953125 -6.753906 11.25 -7.21875 11.25 -7.84375 C 11.25 -8.457031 10.945312 -8.890625 10.34375 -9.140625 C 9.738281 -9.390625 8.929688 -9.515625 7.921875 -9.515625 C 7.253906 -9.515625 6.609375 -9.503906 5.984375 -9.484375 C 5.359375 -9.472656 4.882812 -9.46875 4.5625 -9.46875 C 4.539062 -8.957031 4.523438 -8.429688 4.515625 -7.890625 C 4.503906 -7.347656 4.5 -6.769531 4.5 -6.15625 Z M 4.5 -6.15625 "/></g></g></g><g fill="#000001" fill-opacity="1"><g transform="translate(152.272568, 34.996978)"><g><path d="M 15.34375 0 L 11.53125 0 C 11.425781 -0.320312 11.304688 -0.671875 11.171875 -1.046875 C 11.035156 -1.429688 10.894531 -1.828125 10.75 -2.234375 C 10.132812 -2.253906 9.46875 -2.265625 8.75 -2.265625 C 8.03125 -2.265625 7.304688 -2.265625 6.578125 -2.265625 C 5.859375 -2.265625 5.1875 -2.253906 4.5625 -2.234375 L 3.71875 0 L 0.078125 0 C 0.984375 -1.925781 1.851562 -3.847656 2.6875 -5.765625 C 3.53125 -7.679688 4.328125 -9.597656 5.078125 -11.515625 C 5.410156 -11.472656 5.804688 -11.4375 6.265625 -11.40625 C 6.722656 -11.375 7.203125 -11.351562 7.703125 -11.34375 C 8.203125 -11.34375 8.679688 -11.351562 9.140625 -11.375 C 9.597656 -11.40625 9.988281 -11.453125 10.3125 -11.515625 C 11.0625 -9.597656 11.859375 -7.679688 12.703125 -5.765625 C 13.554688 -3.847656 14.4375 -1.925781 15.34375 0 Z M 5.28125 -4.09375 C 6.007812 -4.070312 6.800781 -4.0625 7.65625 -4.0625 C 8.519531 -4.0625 9.316406 -4.070312 10.046875 -4.09375 C 9.734375 -4.914062 9.421875 -5.707031 9.109375 -6.46875 C 8.796875 -7.226562 8.507812 -7.898438 8.25 -8.484375 C 7.988281 -9.078125 7.785156 -9.507812 7.640625 -9.78125 C 7.492188 -9.507812 7.296875 -9.082031 7.046875 -8.5 C 6.796875 -7.914062 6.519531 -7.238281 6.21875 -6.46875 C 5.914062 -5.707031 5.601562 -4.914062 5.28125 -4.09375 Z M 5.28125 -4.09375 "/></g></g></g><g fill="#000001" fill-opacity="1"><g transform="translate(169.696316, 34.996978)"><g><path d="M 8.78125 0 L 5.25 0 C 5.300781 -0.519531 5.335938 -1.160156 5.359375 -1.921875 C 5.390625 -2.691406 5.40625 -3.507812 5.40625 -4.375 C 5.414062 -5.25 5.414062 -6.125 5.40625 -7 C 5.40625 -7.882812 5.390625 -8.707031 5.359375 -9.46875 C 4.210938 -9.445312 3.226562 -9.390625 2.40625 -9.296875 C 1.59375 -9.210938 0.816406 -9.09375 0.078125 -8.9375 C 0.234375 -9.800781 0.234375 -10.660156 0.078125 -11.515625 C 1.390625 -11.472656 2.609375 -11.441406 3.734375 -11.421875 C 4.859375 -11.410156 5.953125 -11.40625 7.015625 -11.40625 C 8.078125 -11.40625 9.171875 -11.410156 10.296875 -11.421875 C 11.429688 -11.441406 12.65625 -11.472656 13.96875 -11.515625 C 13.8125 -10.660156 13.8125 -9.800781 13.96875 -8.9375 C 13.21875 -9.09375 12.429688 -9.210938 11.609375 -9.296875 C 10.785156 -9.390625 9.789062 -9.445312 8.625 -9.46875 C 8.601562 -8.695312 8.585938 -7.875 8.578125 -7 C 8.578125 -6.125 8.582031 -5.25 8.59375 -4.375 C 8.601562 -3.5 8.625 -2.679688 8.65625 -1.921875 C 8.6875 -1.160156 8.726562 -0.519531 8.78125 0 Z M 8.78125 0 "/></g></g></g><g fill="#000001" fill-opacity="1"><g transform="translate(185.737241, 34.996978)"><g><path d="M 4.765625 0 L 1.234375 0 C 1.273438 -0.53125 1.304688 -1.179688 1.328125 -1.953125 C 1.359375 -2.722656 1.378906 -3.550781 1.390625 -4.4375 C 1.398438 -5.320312 1.398438 -6.207031 1.390625 -7.09375 C 1.378906 -7.976562 1.363281 -8.800781 1.34375 -9.5625 C 1.320312 -10.332031 1.285156 -10.984375 1.234375 -11.515625 C 1.835938 -11.421875 2.425781 -11.367188 3 -11.359375 C 3.582031 -11.359375 4.15625 -11.410156 4.71875 -11.515625 C 4.675781 -10.984375 4.640625 -10.332031 4.609375 -9.5625 C 4.585938 -8.789062 4.570312 -7.960938 4.5625 -7.078125 C 4.550781 -6.191406 4.550781 -5.304688 4.5625 -4.421875 C 4.582031 -3.535156 4.609375 -2.707031 4.640625 -1.9375 C 4.671875 -1.164062 4.710938 -0.519531 4.765625 0 Z M 4.765625 0 "/></g></g></g><g fill="#000001" fill-opacity="1"><g transform="translate(193.727178, 34.996978)"><g><path d="M 11.28125 -11.515625 C 12.4375 -11.367188 13.585938 -11.367188 14.734375 -11.515625 C 14.085938 -10.171875 13.492188 -8.878906 12.953125 -7.640625 C 12.410156 -6.398438 11.882812 -5.15625 11.375 -3.90625 C 10.875 -2.664062 10.363281 -1.363281 9.84375 0 L 4.9375 0 C 4.445312 -1.363281 3.953125 -2.664062 3.453125 -3.90625 C 2.953125 -5.15625 2.425781 -6.398438 1.875 -7.640625 C 1.320312 -8.878906 0.722656 -10.171875 0.078125 -11.515625 C 1.296875 -11.367188 2.507812 -11.367188 3.71875 -11.515625 C 3.914062 -10.921875 4.144531 -10.265625 4.40625 -9.546875 C 4.664062 -8.835938 4.9375 -8.109375 5.21875 -7.359375 C 5.5 -6.617188 5.773438 -5.898438 6.046875 -5.203125 C 6.328125 -4.515625 6.585938 -3.890625 6.828125 -3.328125 C 7.078125 -2.773438 7.285156 -2.335938 7.453125 -2.015625 C 7.609375 -2.335938 7.804688 -2.773438 8.046875 -3.328125 C 8.285156 -3.890625 8.539062 -4.515625 8.8125 -5.203125 C 9.09375 -5.898438 9.378906 -6.617188 9.671875 -7.359375 C 9.960938 -8.109375 10.242188 -8.835938 10.515625 -9.546875 C 10.796875 -10.265625 11.050781 -10.921875 11.28125 -11.515625 Z M 11.28125 -11.515625 "/></g></g></g><g fill="#000001" fill-opacity="1"><g transform="translate(210.536339, 34.996978)"><g><path d="M 14 0 L 1.234375 0 C 1.273438 -0.53125 1.304688 -1.179688 1.328125 -1.953125 C 1.359375 -2.722656 1.378906 -3.550781 1.390625 -4.4375 C 1.398438 -5.320312 1.398438 -6.207031 1.390625 -7.09375 C 1.378906 -7.976562 1.363281 -8.800781 1.34375 -9.5625 C 1.320312 -10.332031 1.285156 -10.984375 1.234375 -11.515625 C 1.429688 -11.484375 1.769531 -11.453125 2.25 -11.421875 C 2.726562 -11.398438 3.289062 -11.378906 3.9375 -11.359375 C 4.59375 -11.347656 5.289062 -11.335938 6.03125 -11.328125 C 6.78125 -11.316406 7.539062 -11.304688 8.3125 -11.296875 C 9.09375 -11.296875 9.84375 -11.300781 10.5625 -11.3125 C 11.289062 -11.320312 11.945312 -11.335938 12.53125 -11.359375 C 13.125 -11.390625 13.613281 -11.425781 14 -11.46875 C 13.914062 -10.550781 13.914062 -9.625 14 -8.6875 C 13.625 -8.789062 13.148438 -8.882812 12.578125 -8.96875 C 12.003906 -9.050781 11.375 -9.125 10.6875 -9.1875 C 10 -9.257812 9.289062 -9.316406 8.5625 -9.359375 C 7.84375 -9.398438 7.140625 -9.429688 6.453125 -9.453125 C 5.773438 -9.472656 5.15625 -9.476562 4.59375 -9.46875 C 4.539062 -8.519531 4.523438 -7.578125 4.546875 -6.640625 C 5.253906 -6.628906 6 -6.625 6.78125 -6.625 C 7.5625 -6.632812 8.332031 -6.648438 9.09375 -6.671875 C 9.863281 -6.703125 10.578125 -6.734375 11.234375 -6.765625 C 11.890625 -6.804688 12.453125 -6.847656 12.921875 -6.890625 C 12.835938 -6.128906 12.835938 -5.363281 12.921875 -4.59375 C 12.453125 -4.632812 11.890625 -4.671875 11.234375 -4.703125 C 10.578125 -4.734375 9.863281 -4.757812 9.09375 -4.78125 C 8.332031 -4.8125 7.5625 -4.828125 6.78125 -4.828125 C 6 -4.835938 5.253906 -4.832031 4.546875 -4.8125 C 4.546875 -4.34375 4.550781 -3.878906 4.5625 -3.421875 C 4.570312 -2.972656 4.59375 -2.519531 4.625 -2.0625 C 5.1875 -2.050781 5.8125 -2.054688 6.5 -2.078125 C 7.1875 -2.097656 7.890625 -2.128906 8.609375 -2.171875 C 9.328125 -2.210938 10.03125 -2.265625 10.71875 -2.328125 C 11.40625 -2.390625 12.03125 -2.460938 12.59375 -2.546875 C 13.15625 -2.628906 13.625 -2.722656 14 -2.828125 C 13.914062 -1.878906 13.914062 -0.9375 14 0 Z M 14 0 "/></g></g></g></g></g></g></g></svg>