<svg xmlns="http://www.w3.org/2000/svg" viewBox="0 0 34.23 36.51"><path d="M14.95 2.93c-.42.14-.99.33-1.62.55l-2.29.8.14.56c.16.62.42 1.1.58 1.05.06-.02.12-.23.14-.46.03-.48.44-1.1.79-1.21.21-.07.29.03.63.83.67 1.57 1.17 3.24 1.09 3.64-.04.2-.06.41-.05.46s.44-.04.95-.21.91-.35.89-.4-.2-.22-.4-.38c-.33-.26-.44-.5-1.05-2.35l-.68-2.06.36-.12c.24-.08.55-.03.96.16.33.15.65.26.71.24.09-.03-.16-.75-.46-1.32 0 0-.27.07-.69.21Zm2.83-.77c-.06.01-.1.03-.1.03-.02.03.07.17.2.31.18.2.26.64.4 2.22.18 2.15.17 2.89-.05 2.97-.08.03-.1.1-.05.17s.87.1 1.82.07 1.77-.04 1.82 0c.22.11.32-.05.38-.62.09-.89.02-1-.37-.54-.37.45-.77.61-1.55.63l-.54.02-.12-.59c-.07-.32-.12-.84-.13-1.16-.01-.64.03-.66 1.14-.51.33.04.62.05.65 0 .02-.04.02-.27-.01-.5l-.05-.42-.54.18c-.63.21-1.26.14-1.27-.13 0-.1-.05-.51-.09-.9s-.03-.75.03-.8.51-.08.99-.06c.7.02.94.09 1.2.35.41.42.55.32.52-.38l-.02-.55H21c-1.07.02-2.77.13-3.21.22ZM7.85 6.35c-.89.28-1.56 1.01-1.76 2.03-.18.91.26 2.08 1.07 2.86.66.63 1.36.96 2.01.94.92-.03 2.07-.77 2.42-1.57.28-.65.28-1.65 0-2.25-.56-1.2-1.72-2.09-2.78-2.13-.34-.02-.67.03-.96.12m-.13.68c.44-.13.99-.03 1.49.36.64.5 1.39 1.54 1.62 2.23.17.5.16.68-.04 1.08-.29.58-.89.83-1.49.61-.63-.23-1.68-1.2-2.12-1.96-.36-.63-.39-.75-.33-1.26.08-.56.42-.94.86-1.07Zm17.4-4.47c-.11.02-.09.13-.02.34.09.26-.09 1.12-.31 1.51-.03.05-.24.6-.48 1.22-.24.63-.58 1.4-.77 1.71l-.35.57.61.15c.33.08.63.14.67.13s0-.19-.06-.4c-.13-.39-.02-.79.66-2.5.18-.46.37-.79.42-.73.07.09.32 2.8.34 3.63 0 .4.33.18 1.72-1.22.73-.73 1.35-1.27 1.37-1.19.04.13-.45 1.63-.8 2.43-.1.22-.16.44-.14.5.02.05-.11.21-.29.35s-.31.3-.29.36.34.25.72.43.7.32.72.31c.02 0 .05-.23.07-.5.06-.75 1.46-4.51 1.72-4.59.38-.12.14-.4-.52-.59l-.63-.18-1.21 1.26-1.21 1.26-.11-.62c-.06-.34-.13-.94-.16-1.34s-.1-.99-.16-1.31c-.11-.57-.13-.59-.77-.81-.4-.14-.62-.2-.73-.18ZM4.04 10.62c-.08.03-.59.88-1.98 3.3-.15.27-.26.55-.23.63.04.13 1.35.83 1.34.71 0-.03-.09-.34-.2-.69-.19-.64-.11-1.15.17-1.18.29-.02 3.75 2.07 3.94 2.38.1.17.24.3.31.27.07-.02.31-.4.54-.85l.42-.81h-.47c-.28 0-.88-.22-1.45-.53-2.33-1.26-2.73-1.49-2.76-1.6-.06-.19.47-.6 1.04-.79.3-.1.53-.22.52-.27-.04-.12-1.06-.64-1.18-.6Zm12.52.27c-1.04.34-2.03.78-2.69 1.21-4.72 3.12-6.63 8.66-4.83 14.04 1.86 5.59 7.19 9.04 12.89 8.34 1.03-.13 3.18-.8 4.14-1.31 4.45-2.32 7.02-7.57 6.18-12.62-.34-2.04-1.08-3.78-2.31-5.44-2.43-3.28-6.37-5.11-10.47-4.87-.8.05-1.88.29-2.91.63Zm7.27 2.45s.09-.02.13-.02c.58.03 2.27 3.99 2.34 5.46.1 2.26-.87 4.46-2.89 6.57-.9.94-.94 1.28-.37 2.99.43 1.3.43 1.32.15 1.42-.16.05-.34.07-.4.04-.21-.1-.73-1.92-.94-3.24-.2-1.28-.22-1.35-.67-1.96-.28-.38-.65-1.13-.94-1.88-.41-1.09-.47-1.38-.49-2.37-.03-1.42.29-2.65 1.01-3.9.71-1.24 2.16-2.73 2.91-3.07.05-.03.1-.04.15-.05Zm-8.94 3.34c.05-.03.11-.04.17-.05.16-.02.34.02.52.15.36.27.38.33.18.73-.22.44-.59.54-.96.24-.45-.36-.28-.89.09-1.07m8.53-.36c-.27.09-.85 2.2-1.14 4.16-.2 1.4-.25 3.54-.09 4.39.08.45.14.54.29.49.13-.04.18-.38.16-1.04-.08-2.33.2-4.66.8-6.72.34-1.16.34-1.4-.02-1.28m-10.56 4.77c.34-.15.76-.15 1.17.05.79.4.98 1.32.4 2-.36.42-.78.58-1.31.48-.51-.09-.76-.34-.96-.94-.24-.71.13-1.35.71-1.6Zm3.82 3.07c.17-.05.37-.05.66-.02 1.19.15 1.6 1.67.65 2.44-.36.29-.61.36-1.06.28-1.14-.2-1.56-1.52-.75-2.35.18-.19.33-.3.5-.35m1.21 4.74c.38-.06.76.31.81.92.02.26-.05.36-.34.45-.7.23-1.33-.67-.81-1.18.06-.06.12-.1.18-.13.05-.03.11-.05.16-.06"/></svg>